<?xml version="1.0" encoding="UTF-8" standalone="no"?>
<!-- Created with Inkscape (http://www.inkscape.org/) -->

<svg
   width="94.963371mm"
   height="34.713421mm"
   viewBox="0 0 94.963371 34.713421"
   version="1.1"
   id="svg1"
   xmlns="http://www.w3.org/2000/svg"
   xmlns:svg="http://www.w3.org/2000/svg">
  <defs
     id="defs1">
    <mask
       maskUnits="userSpaceOnUse"
       id="mask8">
      <path
         d="m 40.46123,70.183491 q -1.461912,0 -2.568223,-0.513644 -1.086556,-0.513644 -1.698979,-1.461912 -0.592667,-0.968022 -0.592667,-2.291644 h 2.429935 q 0,0.968023 0.651934,1.540932 0.671689,0.572911 1.778,0.572911 1.066801,0 1.679224,-0.553154 0.632177,-0.572912 0.632177,-1.52118 0,-0.711199 -0.414867,-1.2446 -0.395111,-0.553155 -1.145822,-0.750711 l -1.936046,-0.493888 q -1.560689,-0.395112 -2.469445,-1.481669 -0.908756,-1.086558 -0.908756,-2.587978 0,-1.837269 1.205089,-2.923825 1.20509,-1.106311 3.220157,-1.106311 1.363134,0 2.370668,0.493891 1.02729,0.493887 1.580445,1.402644 0.553157,0.889 0.553157,2.094089 h -2.41018 q 0,-0.829734 -0.572911,-1.343378 -0.572911,-0.513645 -1.521179,-0.513645 -0.928511,0 -1.481667,0.513645 -0.5334,0.493887 -0.5334,1.303867 0,0.67169 0.375356,1.10631 0.395111,0.434624 1.086555,0.63218 l 1.995313,0.493891 q 1.600201,0.395109 2.508956,1.580443 0.928512,1.185332 0.928512,2.825045 0,1.284113 -0.592667,2.232381 -0.572911,0.948266 -1.639712,1.481666 -1.0668,0.513644 -2.508957,0.513644 z m 7.388589,3.358445 V 59.120375 h 2.410178 v 1.995313 q 0.296334,-1.02729 1.066801,-1.600201 0.770467,-0.592669 1.91629,-0.592669 1.047044,0 1.837266,0.513647 0.80998,0.513643 1.244603,1.461909 0.454376,0.928514 0.454376,2.173115 v 2.943578 q 0,1.87678 -0.968021,3.022603 -0.968024,1.145821 -2.568224,1.145821 -1.145823,0 -1.936046,-0.592668 -0.770467,-0.592666 -1.0668,-1.659466 l 0.07902,2.568223 v 3.042356 z m 4.464758,-5.492045 q 0.948266,0 1.46191,-0.513644 0.533402,-0.513646 0.533402,-1.580447 v -2.805289 q 0,-1.0668 -0.533402,-1.580445 -0.513644,-0.513645 -1.46191,-0.513645 -0.948268,0 -1.481668,0.572911 -0.513644,0.572912 -0.513644,1.619956 v 2.607736 q 0,1.047044 0.513644,1.619956 0.5334,0.572911 1.481668,0.572911 z m 13.552325,1.936045 q -1.619958,0 -2.607734,-0.968022 -0.968023,-0.968023 -0.968023,-2.54847 v -8.672692 h -3.57576 v -2.232379 h 6.045203 v 10.845805 q 0,0.612423 0.335847,0.987779 0.3556,0.3556 0.948266,0.3556 h 3.180646 v 2.232379 z m 5.669853,0 v -2.232379 h 3.714046 v -6.400802 h -3.318936 v -2.23238 h 5.788382 v 8.633182 h 3.338691 v 2.232379 z m 4.780846,-12.683074 q -0.75071,0 -1.185333,-0.375354 -0.434623,-0.395113 -0.434623,-1.047045 0,-0.651934 0.434623,-1.02729 0.434623,-0.39511 1.185333,-0.39511 0.750714,0 1.185334,0.39511 0.434622,0.375356 0.434622,1.02729 0,0.651932 -0.434622,1.047045 -0.43462,0.375354 -1.185334,0.375354 z m 12.584303,12.683074 q -1.52118,0 -2.429934,-0.869246 -0.889003,-0.889 -0.889003,-2.390423 v -5.373512 h -3.002846 v -2.23238 h 3.002846 v -3.062113 h 2.489204 v 3.062113 h 4.32647 v 2.23238 h -4.32647 v 5.314246 q 0,0.474133 0.256823,0.790222 0.276577,0.296334 0.75071,0.296334 h 3.220156 v 2.232379 z"
         id="path8"
         style="font-weight:bold;font-size:74.6667px;font-family:'JetBrains Mono';-inkscape-font-specification:'JetBrains Mono, Bold';white-space:pre;fill:#ffffff;stroke:#ffffff;stroke-width:0.1;stroke-linejoin:round;paint-order:fill markers stroke"
         aria-label="Split" />
    </mask>
  </defs>
  <g
     id="layer1"
     transform="translate(-16.518317,-45.804234)">
    <g
       id="g8"
       transform="matrix(1.6719704,0,0,1.6719704,-43.006105,-42.442284)">
      <path
         d="m 50.202136,183.03481 q -5.525336,0 -9.706672,-1.94133 -4.106668,-1.94133 -6.421336,-5.52534 -2.240001,-3.65866 -2.240001,-8.66133 h 9.184004 q 0,3.65867 2.464002,5.824 2.538667,2.16533 6.720003,2.16533 4.032002,0 6.346669,-2.09066 2.389335,-2.16534 2.389335,-5.74934 0,-2.688 -1.568001,-4.704 -1.493334,-2.09067 -4.330669,-2.83734 l -7.317336,-1.86666 q -5.89867,-1.49334 -9.333338,-5.60001 -3.434668,-4.10667 -3.434668,-9.78133 0,-6.94401 4.554668,-11.05068 4.554669,-4.18133 12.170673,-4.18133 5.152002,0 8.960004,1.86667 3.882669,1.86666 5.973336,5.30133 2.090668,3.36 2.090668,7.91467 h -9.109338 q 0,-3.136 -2.165334,-5.07733 -2.165334,-1.94134 -5.749336,-1.94134 -3.509335,0 -5.600003,1.94134 -2.016001,1.86666 -2.016001,4.928 0,2.53867 1.418668,4.18133 1.493334,1.64267 4.106668,2.38934 l 7.541337,1.86667 q 6.048003,1.49333 9.482671,5.97333 3.509335,4.48 3.509335,10.67734 0,4.85334 -2.240001,8.43734 -2.165334,3.584 -6.197336,5.6 -4.032002,1.94133 -9.482671,1.94133 z m 27.925374,12.69334 v -54.50669 h 9.109338 v 7.54134 q 1.12,-3.88267 4.032002,-6.048 2.912001,-2.24001 7.24267,-2.24001 3.95733,0 6.944,1.94134 3.06134,1.94133 4.70401,5.52533 1.71733,3.50934 1.71733,8.21334 v 11.12534 q 0,7.09334 -3.65867,11.42401 -3.65867,4.33066 -9.70667,4.33066 -4.330669,0 -7.317337,-2.24 -2.912002,-2.24 -4.032002,-6.272 l 0.298667,9.70667 v 11.49867 z m 16.874675,-20.75734 q 3.584001,0 5.525335,-1.94133 2.016,-1.94134 2.016,-5.97334 v -10.60267 q 0,-4.032 -2.016,-5.97334 -1.941334,-1.94133 -5.525335,-1.94133 -3.584002,0 -5.600003,2.16533 -1.941334,2.16534 -1.941334,6.12267 v 9.85601 q 0,3.95733 1.941334,6.12267 2.016001,2.16533 5.600003,2.16533 z m 51.221385,7.31734 q -6.12267,0 -9.856,-3.65867 -3.65867,-3.65867 -3.65867,-9.63201 v -32.77868 h -13.51468 v -8.43734 h 22.84801 v 40.99202 q 0,2.31467 1.26934,3.73334 1.344,1.344 3.584,1.344 h 12.02134 v 8.43734 z m 21.42937,0 v -8.43734 h 14.03734 V 149.6588 h -12.54401 v -8.43734 h 21.87735 v 32.62935 h 12.61867 v 8.43734 z m 18.06934,-47.93603 q -2.83733,0 -4.48,-1.41866 -1.64267,-1.49334 -1.64267,-3.95734 0,-2.464 1.64267,-3.88267 1.64267,-1.49333 4.48,-1.49333 2.83734,0 4.48,1.49333 1.64267,1.41867 1.64267,3.88267 0,2.464 -1.64267,3.95734 -1.64266,1.41866 -4.48,1.41866 z m 47.56272,47.93603 q -5.74934,0 -9.184,-3.28534 -3.36001,-3.36 -3.36001,-9.03467 V 149.6588 h -11.34934 v -8.43734 h 11.34934 v -11.57334 h 9.40801 v 11.57334 h 16.35201 v 8.43734 H 230.149 v 20.08534 q 0,1.792 0.97067,2.98667 1.04533,1.12 2.83733,1.12 h 12.17067 v 8.43734 z"
         id="text1"
         style="font-weight:bold;font-size:74.6667px;font-family:'JetBrains Mono';-inkscape-font-specification:'JetBrains Mono, Bold';white-space:pre;fill:#ffffff;stroke:#000000;stroke-width:0;stroke-linejoin:round;paint-order:fill markers stroke"
         transform="matrix(0.26458333,0,0,0.26458333,27.178582,21.755531)"
         aria-label="Split" />
      <path
         style="fill:none;fill-opacity:1;stroke:#ffffff;stroke-width:2;stroke-linejoin:round;stroke-dasharray:none;stroke-opacity:1;paint-order:fill markers stroke"
         d="M 43.544888,53.086411 37.37096,72.262998"
         id="path1" />
      <path
         style="fill:none;fill-opacity:1;stroke:#000000;stroke-width:1.5;stroke-linejoin:round;stroke-dasharray:none;stroke-opacity:1;paint-order:fill markers stroke"
         d="M 41.907779,52.557244 35.733851,71.733831"
         id="path2"
         mask="url(#mask8)" />
    </g>
  </g>
</svg>
