<!DOCTYPE svg PUBLIC "-//W3C//DTD SVG 1.1//EN" "http://www.w3.org/Graphics/SVG/1.1/DTD/svg11.dtd">
<!-- Uploaded to: SVG Repo, www.svgrepo.com, Transformed by: SVG Repo Mixer Tools -->
<svg width="800px" height="800px" viewBox="-1.7 -1.7 20.40 20.40" fill="none" xmlns="http://www.w3.org/2000/svg">
<g id="SVGRepo_bgCarrier" stroke-width="0"/>
<g id="SVGRepo_tracerCarrier" stroke-linecap="round" stroke-linejoin="round"/>
<g id="SVGRepo_iconCarrier"> <path d="M9.5474 3.5C8.82737 3.5 8.21601 4.02747 8.11049 4.73972L7.77563 7H10V10H7.33119L6.92345 12.7522C6.85846 13.1909 6.73748 13.6091 6.56841 14H14V17H2V14C2.98006 14 3.81221 13.282 3.95584 12.3126L4.29844 10H2V7H4.74289L5.14288 4.30008C5.46632 2.11683 7.34032 0.5 9.5474 0.5C12.0065 0.5 14 2.4935 14 4.9526V5H11V4.9526C11 4.15035 10.3496 3.5 9.5474 3.5Z" fill="#ffffff"/> </g>
</svg>